<svg xmlns="http://www.w3.org/2000/svg" viewBox="0 0 100 84" role="img" aria-label="Jagged sea rock">
  <defs>
    <linearGradient id="rockFace" x1="0" y1="0" x2="1" y2="1">
      <stop offset="0%" stop-color="#8a8175"/>
      <stop offset="55%" stop-color="#6b6459"/>
      <stop offset="100%" stop-color="#332f28"/>
    </linearGradient>
  </defs>
  <ellipse cx="50" cy="72" rx="38" ry="8" fill="#c7e7ed" opacity="0.35"/>
  <ellipse cx="50" cy="74" rx="26" ry="5" fill="#ffffff" opacity="0.4"/>
  <path d="M12 68 L6 46 L24 20 L38 4 L56 0 L74 14 L92 34 L94 58 L80 70 L58 66 L34 72 Z" fill="url(#rockFace)" stroke="#211e19" stroke-width="2"/>
  <path d="M38 4 L46 30 L24 20 Z" fill="#a49a89" opacity="0.6"/>
  <path d="M56 0 L60 26 L74 14 Z" fill="#98907f" opacity="0.55"/>
  <path d="M46 30 L60 26 L58 48 L40 46 Z" fill="#4d473c" opacity="0.7"/>
  <path d="M40 46 L58 48 L52 62 L34 60 Z" fill="#3a352c" opacity="0.7"/>
</svg>
